# xmcd
#
# Track frame offsets: 
#        150
#        20255
#        41142
#        58862
#        76642
#        95375
#        113382
#        129077
#        145752
#        166260
#        189382
#        215330
#
# Disc length: 3152 seconds
#
# Revision: 5
# Processed by: cddbd v1.5.2PL0 Copyright (c) Steve Scherf et al.
# Submitted via: ExactAudioCopy v0.99pb5
#
DISCID=8d0c4e0c
DTITLE=Blessid Union Of Souls - Home
DYEAR=1995
DGENRE=misc
TTITLE0=I Believe
TTITLE1=Let Me Be The One
TTITLE2=All Along
TTITLE3=Oh Virginia
TTITLE4=Nora
TTITLE5=Would You Be There
TTITLE6=Home
TTITLE7=End Of The World
TTITLE8=Heaven
TTITLE9=Forever For Tonight
TTITLE10=Lucky To Be Here
TTITLE11=I Believe (2)
EXTD=YEAR: 1995
EXTT0=
EXTT1=
EXTT2=
EXTT3=
EXTT4=
EXTT5=
EXTT6=
EXTT7=
EXTT8=
EXTT9=
EXTT10=
EXTT11=
PLAYORDER=
